<?xml version="1.0" encoding="UTF-8" standalone="no"?>
<!-- Created with Inkscape (http://www.inkscape.org/) -->

<svg
   width="297mm"
   height="210mm"
   viewBox="0 0 297 210"
   version="1.1"
   id="svg5"
   xml:space="preserve"
   inkscape:version="1.2.2 (b0a84865, 2022-12-01)"
   sodipodi:docname="logo-rabbit-stalker.svg"
   xmlns:inkscape="http://www.inkscape.org/namespaces/inkscape"
   xmlns:sodipodi="http://sodipodi.sourceforge.net/DTD/sodipodi-0.dtd"
   xmlns="http://www.w3.org/2000/svg"
   xmlns:svg="http://www.w3.org/2000/svg"><sodipodi:namedview
     id="namedview7"
     pagecolor="#ffffff"
     bordercolor="#000000"
     borderopacity="0.25"
     inkscape:showpageshadow="2"
     inkscape:pageopacity="0.0"
     inkscape:pagecheckerboard="0"
     inkscape:deskcolor="#d1d1d1"
     inkscape:document-units="mm"
     showgrid="false"
     inkscape:zoom="1.1893044"
     inkscape:cx="313.20829"
     inkscape:cy="389.72361"
     inkscape:window-width="1920"
     inkscape:window-height="1027"
     inkscape:window-x="0"
     inkscape:window-y="25"
     inkscape:window-maximized="0"
     inkscape:current-layer="layer1" /><defs
     id="defs2"><style
       id="style397">.cls-1{fill:#40586a;}.cls-2{fill:#d3dae0;stroke-width:4px;}.cls-2,.cls-3,.cls-5,.cls-6,.cls-7{stroke:#000;}.cls-2,.cls-3,.cls-7{stroke-miterlimit:10;}.cls-3,.cls-6{fill:none;}.cls-4{fill:#8095a0;}.cls-5{fill:#001723;}.cls-5,.cls-6{stroke-linecap:round;stroke-linejoin:round;}.cls-5,.cls-7{stroke-width:2px;}.cls-6{stroke-width:3px;}.cls-7{fill:#e8e6ac;}</style><style
       id="style450">.cls-1,.cls-4{fill:#acb3ba;}.cls-1,.cls-3,.cls-5,.cls-6,.cls-7{stroke:#000;}.cls-1,.cls-3,.cls-5,.cls-7{stroke-miterlimit:10;}.cls-1,.cls-3{stroke-width:4px;}.cls-2{fill:#72767a;}.cls-3{fill:#d1d1d1;}.cls-5{fill:#fff;}.cls-6{fill:none;stroke-linecap:round;stroke-linejoin:round;}.cls-7{fill:#6b6e70;stroke-width:2px;}</style></defs><g
     inkscape:label="Layer 1"
     inkscape:groupmode="layer"
     id="layer1"><g
       id="g1054"
       transform="matrix(1.746425,0,0,1.746425,-300.08032,-61.217182)"><g
         id="g945"
         transform="matrix(0.26458333,0,0,0.26458333,205.10934,65.103126)"><path
           class="cls-1"
           d="M 123.41,84.14 A 102.23,102.23 0 0 1 122,72.33 L 121.9,70 c -0.46,-8 -1.31,-22.8 -2.83,-36 -2.51,-21.74 -5.23,-24.61 -5.75,-25 -2.11,0.18 -7.21,5.86 -13.52,26.22 l -0.12,0.39 c -0.07,0.21 -0.13,0.43 -0.19,0.66 -1.38,5 -4.4,9.86 -24.39,9.9 h -0.21 c -20,0 -23,-4.91 -24.38,-9.9 -0.06,-0.23 -0.12,-0.45 -0.19,-0.66 L 50.2,35.22 C 43.89,14.87 38.79,9.19 36.68,9 36.16,9.35 33.44,12.22 30.93,34 29.41,47.21 28.56,62 28.1,70 L 28,72.33 a 102.23,102.23 0 0 1 -1.38,11.81 c -0.81,4.86 -1.44,8.69 -0.54,18.5 1.31,14.28 42.09,38 49,38.35 6.86,-0.39 47.64,-24.07 49,-38.35 0.77,-9.81 0.14,-13.64 -0.67,-18.5 z m -15.68,22.58 c -8.35,2.52 -17.5,29.53 -32.49,29.7 -15,-0.17 -24.13,-27.18 -32.48,-29.7 C 36.94,105 31,102.12 31.23,98.34 31.75,86.9 34.35,65.26 36.51,64.15 c 16.45,-8.48 31,-3.61 35,45.81 H 79 c 4,-49.42 18.51,-54.29 35,-45.81 2.15,1.11 4.76,22.75 5.28,34.19 0.15,3.78 -5.73,6.66 -11.55,8.38 z"
           id="path738"
           style="fill:#40586a" /><path
           class="cls-2"
           d="M 125.94,102.82 C 124.49,118.62 81.94,142.76 75,143 68.08,142.76 25.5,118.62 24.06,102.82 22.58,86.72 25.15,86.23 25.98,72.22 26.81,58.21 29.36,7 36.57,7 c 7.21,0 14.63,24.73 15.66,28 1.03,3.27 1,9.11 22.67,9.15 h 0.21 c 21.64,0 21.64,-5.86 22.67,-9.15 1.03,-3.29 8.45,-28 15.66,-28 7.21,0 9.76,51.2 10.56,65.22 0.8,14.02 3.42,14.49 1.94,30.6 z"
           data-name="&lt;Path&gt;"
           id="_Path_-7"
           style="fill:#d3dae0;stroke:#000000;stroke-width:4px;stroke-miterlimit:10" /><path
           class="cls-1"
           d="M 123.41,84.14 A 102.23,102.23 0 0 1 122,72.33 L 121.9,70 c -0.46,-8 -1.31,-22.8 -2.83,-36 -2.51,-21.74 -5.23,-24.61 -5.75,-25 -2.11,0.18 -7.21,5.86 -13.52,26.22 l -0.12,0.39 c -0.07,0.21 -0.13,0.43 -0.19,0.66 -1.38,5 -4.4,9.86 -24.39,9.9 h -0.21 c -20,0 -23,-4.91 -24.38,-9.9 -0.06,-0.23 -0.12,-0.45 -0.19,-0.66 L 50.2,35.22 C 43.89,14.87 38.79,9.19 36.68,9 36.16,9.35 33.44,12.22 30.93,34 29.41,47.21 28.56,62 28.1,70 L 28,72.33 a 102.23,102.23 0 0 1 -1.38,11.81 c -0.81,4.86 -1.44,8.69 -0.54,18.5 1.31,14.28 42.09,38 49,38.35 6.86,-0.39 47.64,-24.07 49,-38.35 0.77,-9.81 0.14,-13.64 -0.67,-18.5 z m -15.68,22.58 c -8.35,2.52 -17.5,29.53 -32.49,29.7 -15,-0.17 -24.13,-27.18 -32.48,-29.7 C 36.94,105 31,102.12 31.23,98.34 31.75,86.9 34.35,65.26 36.51,64.15 c 16.45,-8.48 31,-3.61 35,45.81 H 79 c 4,-49.42 18.51,-54.29 35,-45.81 2.15,1.11 4.76,22.75 5.28,34.19 0.15,3.78 -5.73,6.66 -11.55,8.38 z"
           id="path741"
           style="fill:#40586a" /><path
           class="cls-3"
           d="M 75,143 H 74.9"
           id="path743"
           style="fill:none;stroke:#000000;stroke-miterlimit:10" /><path
           class="cls-3"
           d="M 75.1,143 H 75"
           id="path745"
           style="fill:none;stroke:#000000;stroke-miterlimit:10" /><path
           class="cls-4"
           d="M 43.45,46 C 53.84,43 41.1,17.66 38.73,13.85 34.3,20.67 28,50.55 43.45,46 Z"
           id="path747"
           style="fill:#8095a0" /><path
           class="cls-4"
           d="m 106.36,46 c -10.39,-3 2.76,-28.34 5.13,-32.15 4.43,6.82 10.35,36.7 -5.13,32.15 z"
           id="path749"
           style="fill:#8095a0" /><path
           class="cls-5"
           d="m 85.41,111.33 c 0,4.32 -6.76,9.83 -10.41,9.83 -3.65,0 -10.41,-5.51 -10.41,-9.83 0,-4.32 4.66,-5.83 10.41,-5.83 5.75,0 10.41,1.5 10.41,5.83 z"
           id="path751"
           style="fill:#001723;stroke:#000000;stroke-width:2px;stroke-linecap:round;stroke-linejoin:round" /><line
           class="cls-6"
           x1="75"
           x2="75"
           y1="127.48"
           y2="121.64"
           id="line753"
           style="fill:none;stroke:#000000;stroke-width:3px;stroke-linecap:round;stroke-linejoin:round" /><path
           class="cls-6"
           d="m 83,125.46 c 0,2.43 -3.59,3.4 -8,3.4 -4.41,0 -8,-1 -8,-3.4"
           id="path755"
           style="fill:none;stroke:#000000;stroke-width:3px;stroke-linecap:round;stroke-linejoin:round" /><path
           class="cls-7"
           d="m 100.48,71.35 c 1.27,3.71 -2.21,10.82 -5.92,12.09 a 7.09,7.09 0 0 1 -9,-4.41 c -0.73,-2.14 1.87,-5.44 3.87,-6.88 3.85,-2.78 9.77,-4.51 11.05,-0.8 z"
           id="path757"
           style="fill:#e8e6ac;stroke:#000000;stroke-width:2px;stroke-miterlimit:10" /><circle
           cx="91.809998"
           cy="74.989998"
           r="3.1500001"
           id="circle759" /><path
           class="cls-7"
           d="m 49.52,71.35 c -1.27,3.71 2.21,10.82 5.92,12.09 a 7.09,7.09 0 0 0 9,-4.41 c 0.73,-2.14 -1.87,-5.44 -3.87,-6.88 -3.85,-2.78 -9.77,-4.51 -11.05,-0.8 z"
           id="path761"
           style="fill:#e8e6ac;stroke:#000000;stroke-width:2px;stroke-miterlimit:10" /><circle
           cx="58.189999"
           cy="74.989998"
           r="3.1500001"
           id="circle763" /></g></g><g
       id="g502"
       transform="matrix(0.30708099,-0.07410851,0.07410851,0.30708099,59.490861,81.689095)"><path
         class="cls-1"
         d="m 81.06,48.54 c -6.11,25.87 -4,48.51 4.8,50.57 8.8,2.06 23.44,-32.74 26.92,-43.11 3.48,-10.37 4,-48.51 -4.8,-50.57 -8.8,-2.06 -20.82,17.24 -26.92,43.11 z"
         data-name="&lt;Path&gt;"
         id="_Path_-3" /><path
         class="cls-1"
         d="m 68.94,48.54 c 6.11,25.87 4,48.51 -4.8,50.57 C 55.34,101.17 40.7,66.37 37.22,56 33.74,45.63 33.27,7.5 42,5.44 50.73,3.38 62.84,22.67 68.94,48.54 Z"
         data-name="&lt;Path&gt;"
         id="_Path_2" /><path
         class="cls-2"
         d="M 110.88,55.38 A 185.48,185.48 0 0 1 99.77,80.89 C 98,61.93 102.49,33.78 108.45,8 a 6.51,6.51 0 0 1 1,1.41 c 5.03,8.98 4.14,37.89 1.43,45.97 z"
         id="path458" /><path
         class="cls-2"
         d="M 50.23,80.89 A 185.48,185.48 0 0 1 39.12,55.38 c -2.71,-8.08 -3.6,-37 1.41,-46 a 6.51,6.51 0 0 1 1,-1.41 c 5.98,25.81 10.47,53.96 8.7,72.92 z"
         id="path460" /><path
         class="cls-3"
         d="M 75,144.71 C 48.95,144.71 21,124.38 32.55,97.2 42.93,72.88 48.95,49.68 75,49.68 c 26.05,0 32.07,23.2 42.45,47.51 11.55,27.19 -16.4,47.52 -42.45,47.52 z"
         data-name="&lt;Path&gt;"
         id="_Path_3" /><path
         class="cls-4"
         d="m 118,112.37 a 26,26 0 0 1 -4.3,11.7 c -7.36,11.15 -22.91,18.64 -38.68,18.64 -15.77,0 -31.32,-7.49 -38.68,-18.64 a 26,26 0 0 1 -4.3,-11.7 c 11.89,-5.74 26.8,-9 43,-9 16.2,0 31.05,3.26 42.96,9 z"
         id="path463" /><ellipse
         class="cls-5"
         cx="95.18"
         cy="90.639999"
         rx="7.27"
         ry="7.6999998"
         id="ellipse465" /><ellipse
         cx="93.18"
         cy="90.639999"
         rx="4.4899998"
         ry="4.75"
         id="ellipse467" /><ellipse
         class="cls-5"
         cx="54.82"
         cy="90.639999"
         rx="7.27"
         ry="7.6999998"
         id="ellipse469" /><ellipse
         cx="56.82"
         cy="90.639999"
         rx="4.4899998"
         ry="4.75"
         id="ellipse471" /><path
         class="cls-5"
         d="m 75,121.87 v 5 a 3,3 0 0 1 -3,3 h -0.39 a 3,3 0 0 1 -3,-3 V 124"
         id="path473" /><path
         class="cls-5"
         d="m 75,120.87 v 6 a 3,3 0 0 0 3,3 h 0.39 a 3,3 0 0 0 3,-3 V 124"
         id="path475" /><path
         class="cls-6"
         d="M 61.07,122.89 C 64.75,126 75,123 75,120.45"
         id="path477" /><path
         class="cls-6"
         d="M 88.93,122.89 C 85.25,126 75,123 75,120.45"
         id="path479" /><path
         class="cls-7"
         d="m 83,115 c -0.05,4.44 -6.4,5.43 -8.11,5.41 -1.71,-0.02 -8,-1.15 -8,-5.6 0,-4.45 3.75,-13.09 8.2,-13 4.45,0.09 7.97,8.78 7.91,13.19 z"
         id="path481" /></g></g></svg>
